<svg xmlns="http://www.w3.org/2000/svg" viewBox="0 0 857.89 157.56"><title>sig</title><g id="Layer_2" data-name="Layer 2"><g id="Layer_1-2" data-name="Layer 1"><path d="M515.58,105.08l-2.5-2.72V97.25c7.11-6.84,9.85-15.31,9.92-25.06-2.72-1-5.37-.37-8.2-.52L484.62,85.53c-5.49,11.91-14.42,20.66-25.45,27.55s-22.26,12-35.74,11.64c-3.45,6.86-.26,13.49.65,20l4.17,6L425.38,153c-1.06-.88-2.39-1.44-2.72-2.35-1.51-4.3-3.72-8.41-3.75-13.17s.56-9.29-.9-13.82c-.86-2.64-1.72-5.27-2.75-7.85-.82-5.86,1.71-10.91,4.79-15.53a24.92,24.92,0,0,0,3.56-7c1.58-5.57,4.3-10.61,6.81-15.77,1.07-2.2,1.56-4.67,2.6-6.89,1.58-3.36,2-7.18,4.44-10.24,1.3-1.66,2-3.81,3-5.71A13.32,13.32,0,0,1,447.61,48a4.21,4.21,0,0,1-.47,4.07,109.44,109.44,0,0,0-6.42,10.53c-1.64,3.15-2.75,6.58-4.13,9.86-2,4.66-4.4,9.12-5.92,14-.37,1.2-.58,2.45-1,4.25a15.68,15.68,0,0,0,3.26-.46c4.56-1.87,9-4,13.64-5.7,4.29-1.54,8.84-2.35,13.13-3.88,5.67-2,11.81-2.63,17.6-5.66-.54-1.67-.66-3.48-1.59-4.66a163.28,163.28,0,0,0-11.83-14,78.55,78.55,0,0,0-13.58-11.5c-6.72-4.22-13-9.16-20.4-12.44-6.17-2.72-12.2-5.61-18.8-7.06-3.51-.77-7.11-1.11-10.68-1.57A2.9,2.9,0,0,0,397,25.61c1.22,2.53,4.3,3.07,6.53,5.16L405,34a3.91,3.91,0,0,1-4.39-.07c-4.83-2.78-9.72-5.45-14.54-8.23A29.54,29.54,0,0,1,383,23.32l.26-3.69,6.78-2.9c5.08-.09,10.49-.38,15.76,1.72,2.07.82,4.51.8,6.79,1,5.87.55,10.78,3.83,16.2,5.63,1.7.56,3.31,1.43,5.55,2.41C439,33.36,446.44,36.55,453,41c2.33,1.58,4.12,3.14,4.44,5.36C469.06,52.4,477.15,61.31,484,72c4.1,2.4,8.34,1.85,12.83-.27,4.89-2.32,10-4.07,15-6.16,1.66-.69,3.2-1.67,5.59-2.94.94,0,2.76,0,4.58,0,5.73.05,8.51,2.63,8.93,8.32A25.33,25.33,0,0,1,529,81.54c-1.17,3.22-2,6.54-3,9.83-.07.24.21.59.33.88,5.35-1.21,23.26-14,26.76-19.38l5.34-1.4c4.18,1.82,3.82,5.27,4.39,8,1.3,6.23,3.16,8,9.59,8.2a55,55,0,0,0,15.13-1.77,26.66,26.66,0,0,1,6.77-1.1c3.26,0,6.07-1.36,9.09-2.08,3.49-.83,7.07-1.27,10.57-2.08,3-.7,6-1.68,10.36-2.94a43,43,0,0,0,14.18-3.75c4.05-2,8.5-3.08,12.87-4.33a137.63,137.63,0,0,0,15.27-5.35c4.68-2,9.18-4.4,13.65-6.82,1.4-.76,2.47-2.15,4-3.53l-3.38-2.64c-2.93-.63-5.16-1.14-7.41-1.57-2.09-.4-4.19-.69-6.28-1C657.7,47,648,47.24,638.47,47.9c-7.31.5-14.82,0-22,2.41-1.79.59-3.94.24-5.91.12s-3.88-.67-5.83-.7a34.13,34.13,0,0,1-13-2.59c-6-2.56-12.29-3.63-18.79-1.61a8.66,8.66,0,0,1-2.49.1H553.94l-4.68-2.31c-.26-1.75-1.08-3.67,1.52-5.69h20.85c1.5,0,3.17.35,4.46-.18,2-.83,4.14-1,6.1-2.61,3.3-2.64,7.43-4.22,11.19-6.28,6-3.3,11.84-7,18.51-9,2.16-.65,3.84-2.37,5.83-3.48a84.6,84.6,0,0,1,26.08-9.48,40.72,40.72,0,0,0,7.55-2.14,31.72,31.72,0,0,1,9.12-1.91c4.2-.38,8.31-1.79,12.51-2.28A88.37,88.37,0,0,1,683.77.09c.8,0,1.58.45,2.38.52,2.72.25,5.45.43,8.43.66,6,3.27,13,6,16.34,13.17C714,21,716,27.67,714.7,35.22c3.94.82,7.58.3,11.17.41s7.33,0,11,.05h11l4.61,2.11,4.71-2.16c4.87.33,10-.7,15.47,1a9.16,9.16,0,0,1,2.89-.84,23.14,23.14,0,0,0,8.67-1.65,6.15,6.15,0,0,1,3.87-.27,18.17,18.17,0,0,0,11.18.14c1.53-.42,3.15,1.37,4.58-.26,6-.15,11.94-1.71,18-1.18a3.92,3.92,0,0,0,1.91-.3c3.57-1.65,7.34-1.79,11-1.54l4-1.85c4-.61,7.94.68,11.82-1.32,2.06,2.27,4.46.16,7.36.21l-.61,3.3c-5.22,1.17-9.88,2.33-14.58,3.23-5,.95-10,1.67-15,2.42-2.75.41-5.6.41-8.28,1.11-3.5.91-7,.65-10.54.88-1.79.12-3.56.48-5.34.73-.65.09-1.41.42-1.94.2-4.31-1.78-8.29.07-12.37.93a17.64,17.64,0,0,1-3,.12,29.66,29.66,0,0,0-7.33.77c-2.22.63-4.83-.14-8.35-.36a13.55,13.55,0,0,1-9.84-.3L752,41.9l-2.22-1.8a2.73,2.73,0,0,0-.87.12,22.31,22.31,0,0,1-11,2.47c-7.49-.19-15,0-22.5-.08-3.72,0-6.68.83-8.74,4.38-1,1.72-3.14,2.78-4.84,4.21a16,16,0,0,0,.43,4c1,2.62.69,5.08.1,7.73a39.26,39.26,0,0,0-.44,7.42c-.06,2.5,0,5,0,7.82l3,2c7.82-1,15.13-.28,22.4-.56,7.77-.3,15.53-.89,23.3-.93,11.27-.06,22.51,1.42,33.81,1,2.57-.09,5.16.78,8.34,1.3,2.12,1.26,1.47,3.84.87,5.92s-2.08,3.68-3.28,5.67c-7.69,0-15.38.46-23-.13a117.12,117.12,0,0,1-21.78-3.39,57.21,57.21,0,0,0-14.69-1.56c-6.48,0-12.94.12-19,2.28-4.78,1.7-9.19.37-13.56-.67-2.34-.56-4.23-3-5.85-4.2-1.41-4.18,1.12-7,1.41-10.25s.32-6.22.51-10.19c-1.13-1.06.55-4.25-2.46-6a77.6,77.6,0,0,0-11.46,4.88c-4.73,2.55-9.47,5.07-14.25,7.51a39.43,39.43,0,0,1-4.58,1.72,10.18,10.18,0,0,0-1.86.62c-7.39,4.5-15.77,6.17-24,8.2-1.85.46-3.22,1.73-4.89,2-6.58,1.23-12.78,4.29-18.14,4.26-6.15,1.52-10.85,2.87-15.64,3.81s-9.39,1.4-14.08,2.13a21.6,21.6,0,0,0-4.3,1c-5.24,2-10.41-.31-15.61-.09a17.72,17.72,0,0,1-9.69-10.3c-4.48,2.82-8.65,5.39-12.77,8.05a20.07,20.07,0,0,0-3.87,3c-3.59,3.87-8.45,5.74-12.94,8.08C521.56,104.68,518.51,104.56,515.58,105.08ZM708.86,23.46c-.78-1.57-1.73-3.14-2.37-4.83-2-5.29-6-8.16-11.3-9.33-5.58-1.23-11.06-3.17-16.94-2.69-2.95.24-5.86.1-8.81.93-3.28.91-6.81.88-10.18,1.52s-6.93,2.13-10.46,2.43c-8,.68-15.07,4.35-22.35,7.14-8.91,3.41-17,8.51-25.43,13.05-1.4.76-2.93,1.5-2.87,3.51,3.07.5,5.95,1.1,8.86,1.38a32.33,32.33,0,0,0,4.9-.37c1.61-.1,3.32-.49,4.81-.09a15.88,15.88,0,0,0,9.32-.28c2,.27,3.82,1.1,5.12.57,2.32-.94,4.58-.7,6.86-.71,19.31-.05,38.63,0,57.94-.11,3.72,0,7.44-.79,11.07-1.2C709.07,30.77,709.15,27.18,708.86,23.46Zm-285,94.25a22.45,22.45,0,0,0,3.58.93,32.76,32.76,0,0,0,20.26-5c4.86-3,9.87-5.77,14.45-9.35,6-4.67,10.36-10.52,15-16.29a3.69,3.69,0,0,0,.5-4.1,5.11,5.11,0,0,0-1.57-.22c-5.41,1.15-10.88,2.13-16.21,3.59a170,170,0,0,0-17.22,5.59c-6.77,2.67-13,6.3-17.21,12.08-.43,2.28-.88,4.19-1.13,6.13S424,115,423.82,117.71Z"/><path d="M67.47,67.8h4.41L73.51,70c1.91,4.78,1.6,9.78,1.45,14.74-.31,10.44-.48,20.9-1.18,31.32-.46,6.87-2,13.66-2.57,20.52-.26,2.86.56,5.82.89,8.75,3.61.94,6.25,0,9-2.12,3.4-2.7,6.41-5.46,8.59-9.38,1.73-3.11,4.67-5.55,7-8.33,1.81-2.14,3.55-4.34,5.19-6.35,4.4-.44,5-.16,6.14,3.33.87,2.64,1.57,5.33,2.38,8.1,3.37-.32,5.48-2.77,7.34-4.75,3.48-3.71,7.88-5.83,12-8.45a11.74,11.74,0,0,1,3.36-.88c3.09,4.1,2.07,8.26,1,12.62l1.36,1.64c1.6-.67,3.48-1,4.79-2.07,6.29-5.07,13.2-9.41,18.64-15.5a15.7,15.7,0,0,1,1.59-1.36h5.08l7.58,9.92c9.94,4.05,17.94.38,26.41-2.45a8.07,8.07,0,0,0,1.27-2.72c.55-6.1,3.26-11.54,5.12-17.23,1.2-3.66,3-7.14,4.51-10.69a237.09,237.09,0,0,1,15.62-30.32A33.34,33.34,0,0,1,230,53.2c3.91-4.2,7.55-8.74,12.63-11.65,3.76-2.15,7.67-3,12.06.24,2.09,6.68,3.13,13.85,1.18,21.16a62.62,62.62,0,0,0,16.76,3.87l1.44,2.48c-.37.6-.49,1-.73,1.13a3.32,3.32,0,0,1-1.33.66c-5,.8-10,1.93-15.2,1.45a11.55,11.55,0,0,1-2.65-1.06,25.92,25.92,0,0,0-1.83,2.37c-2.15,3.51-4.1,7.14-6.38,10.56s-5,6.91-7.58,10.35c-1,1.32-1.91,2.68-2.95,3.95s-2.34,2.69-3.55,4c-.33.35-.92.49-1.19.87-5.44,7.78-13.42,12.56-21,17.86a4.09,4.09,0,0,0-.66.8c0,3,2.87,2.1,4,2.9l7.85-.71a50.67,50.67,0,0,1,6.36-4.42c2.79-1.45,5-3.67,7.67-5.16a35.55,35.55,0,0,0,7-5.53,36.34,36.34,0,0,1,9-6.61l2.87,1.35,1.79,5.63a17.93,17.93,0,0,0,4-1c4.08-2.12,8.74-2.63,12.78-4.88,5.45-3,11.24-5.47,15.94-9.8,2.65-2.44,5.83-4.31,8.52-6.72,5.08-4.55,9.63-9.55,11.77-16.91l5.18-3.82,3.17,1.74v5c-4.33,7.2-10.62,13.63-12.85,22.35v4.88l1.91,1.94a33,33,0,0,0,15.71-1.73c4.43-1.63,9.35-1.62,13.7-3.72,1.77-.85,3.69-1.38,6.19-2.29h10.81l8.46,5.07V106a3.15,3.15,0,0,1-3.87,1.65l-6.41-4.85c-7.17-.57-13.21.93-19.23,2.71s-11.94,3.51-18,4.94c-2.2.52-4.63.08-7.45.08a17.35,17.35,0,0,1-8.52-6L296.22,101l.75-5.13c-14.45,12-30.76,18-46.77,25.3l-6.13-5.66c-8.41,6.82-16.14,14.45-27,17.45l-10.71-1.3-5.57-6c-2.94.93-6.33,2.06-9.75,3.06a44.64,44.64,0,0,1-4.79,1c-1.61.28-3.24.44-4.84.77-3.4.7-6.57-.38-9.63-1.48-4.1-1.48-7.94-3.5-9.36-8.82-2.9,2-5.53,3.65-7.92,5.57-3.22,2.58-6.27,5.32-10,7.25-2.3,1.2-4.14,3.27-6.42,4.56-1.5.85-3.4,1-5,1.42l-7.15-5.66,1.15-5.37c-6.75,1.84-9.36,8.14-15.09,11.65l-2.9.14-3.88-2.61-1.65-9.19-1.35-.2c-4.76,5.84-9.07,11.69-14,17-3,3.19-6.94,5.47-10.08,7.87H71.75l-4.69-3.63c-.79-6.75.84-13.33,2.23-19.94a18.3,18.3,0,0,0,.59-2.88Q70.5,111.94,71,97.78c.1-2.83.13-5.67,0-8.5-.23-4.42-.64-8.83-1-13.37-3.84-.54-5.53,2.19-7,4.11-5.79,7.43-10.4,15.63-14.76,24-1.9,3.63-4.4,7-6.62,10.43-1.59,2.49-3.15,5-5.41,8.59-1.65,7.41-6,11.55-13.63,11.57a21.78,21.78,0,0,0-.74-2.06,16.87,16.87,0,0,0-1.13-1.78A30.54,30.54,0,0,0,15.91,141c-2.15,7-2.45,10.22-9.57,16.57H2.55C.8,156-.26,154.18.06,151.87A32,32,0,0,1,6.29,137c.14-.19.6-.13,1.06-.21,1.94,2.09-2.24,4.65.71,6.92,3.53-3.58,4.26-8.55,6.24-12.85,2.07-4.48,3.52-9.27,5.87-13.59s3.31-9.28,4.89-13.93S28.22,94.15,30,89.07V82.59l2.67-3.83,2.24-.14C37,80.05,36.7,82.55,37.56,84c-1.89,6.76-4.13,13.14-5.38,19.71s-4,12.79-4.05,19.8l2.28.18c1.94-3.52,3.34-7.42,5.87-10.33,4-4.56,6.43-10,9.69-14.93s5.81-10.7,9.16-15.75C58.59,77.4,62.22,72.22,67.47,67.8Zm182.08-21a24.82,24.82,0,0,0-14.87,8.74A88.09,88.09,0,0,0,226,66.86a163.64,163.64,0,0,0-8.91,17.47,189.93,189.93,0,0,0-9.48,24.81c-.54,1.92-1.12,3.62,0,5.47,6.28-2.09,10.62-6.47,15.07-10.53,4.09-3.73,7.68-8,11.52-12a5,5,0,0,1,1.32-.83c3.24-5.2,6.34-10,9.32-15,5-8.34,7.82-17.28,6.93-27.51Z"/></g></g></svg>